<svg xmlns="http://www.w3.org/2000/svg" width="65.306" height="65.3" viewBox="0 0 65.306 65.3">
  <path id="Path_179" data-name="Path 179" d="M64.1,29.77c.823,0,1.2-.449,1.2-1.272V20.271a7.636,7.636,0,0,0-2.244-5.46L50.189,1.72A6.6,6.6,0,0,0,45.327,0H19.97a6.411,6.411,0,0,0-4.862,1.72L2.242,14.81A7.341,7.341,0,0,0,0,20.271V45.329a6.223,6.223,0,0,0,2.094,5.086L14.808,63.131A6.9,6.9,0,0,0,19.97,65.3H45.327a6.9,6.9,0,0,0,5.161-2.169L63.2,50.415A6.458,6.458,0,0,0,65.3,45.329V36.652a1.08,1.08,0,0,0-1.2-1.122H60.287v2.693c0,2.02-.3,2.992-2.02,2.992h-1.72c-1.72,0-2.02-1.047-2.02-2.992V35.53H51.834c-2.02,0-2.992-.3-2.992-2.02v-1.8c0-1.72,1.047-2.02,2.992-2.02H54.6V27c0-2.02.3-2.992,2.02-2.992h1.72c1.72,0,2.02,1.047,2.02,2.992V29.7H64.1ZM21.989,47.423c0,2.02-.374,2.992-2.02,2.992H18.025c-1.646,0-2.02-1.047-2.02-2.992V22.889c0-1.122-.374-1.571-1.047-1.571h-1.2c-2.02,0-2.992-.374-2.992-2.02v-1.87c0-1.646,1.047-2.02,2.992-2.02h5.161c2.02,0,2.992.374,2.992,2.02V47.423Zm11-3.067h10.1c2.094,0,3.216.374,3.216,2.094v1.72c0,1.87-1.047,2.244-3.216,2.244H29.245c-2.094,0-3.216-.374-3.216-2.917V44.057c0-5.311.748-9.051,5.61-11.07,4.189-1.8,8.752-1.945,8.752-8.153,0-4.039-1.421-4.338-4.338-4.338-2.768,0-3.89.3-3.89,3.142,0,1.122-.823,1.346-2.094,1.346H28.721c-1.571,0-2.244-.374-2.244-1.945,0-6.882,2.917-8.452,9.574-8.452,9.574.075,10.322,3.74,10.322,11.594,0,12.716-14.436,8.9-14.436,14.96v1.87C31.938,43.982,32.162,44.356,32.985,44.356Z" transform="translate(0.007)" fill="#fff" opacity="0.4"/>
</svg>
