<svg xmlns="http://www.w3.org/2000/svg" width="150" height="149.991" viewBox="0 0 150 149.991"><defs><style>.a{fill:#5388cd;}</style></defs><g transform="translate(0 -0.015)"><g transform="translate(45.533 33.838)"><path class="a" d="M179.776,126.18h-7.785V118.4a2.929,2.929,0,1,0-5.859,0v7.785h-7.785a2.929,2.929,0,0,0,0,5.859h7.785v7.785a2.929,2.929,0,0,0,5.859,0v-7.785h7.785a2.929,2.929,0,0,0,0-5.859Z" transform="translate(-155.418 -115.466)"/></g><g transform="translate(33.396 21.703)"><path class="a" d="M139.772,74.042a25.78,25.78,0,1,0,25.78,25.78A25.809,25.809,0,0,0,139.772,74.042Zm0,45.7a19.921,19.921,0,1,1,19.921-19.921A19.943,19.943,0,0,1,139.772,119.742Z" transform="translate(-113.992 -74.042)"/></g><g transform="translate(0 0.015)"><g transform="translate(0 0)"><path class="a" d="M117.494,26.946,91.421.873A2.931,2.931,0,0,0,89.35.015H8.788A8.8,8.8,0,0,0,0,8.8V141.218a8.8,8.8,0,0,0,8.788,8.788h55.96a2.929,2.929,0,1,0,0-5.859H8.788a2.933,2.933,0,0,1-2.929-2.929V8.8A2.933,2.933,0,0,1,8.788,5.874H86.42V23.158a8.8,8.8,0,0,0,8.788,8.788h17.284V84.092a2.929,2.929,0,0,0,5.859,0V29.017A2.926,2.926,0,0,0,117.494,26.946Zm-22.285-.858a2.933,2.933,0,0,1-2.929-2.929V10.017l16.071,16.07H95.209Z" transform="translate(0 -0.015)"/></g></g><g transform="translate(42.868 82.041)"><path class="a" d="M200.129,280H149.253a2.929,2.929,0,1,0,0,5.859h50.876a2.929,2.929,0,1,0,0-5.859Z" transform="translate(-146.324 -279.998)"/></g><g transform="translate(18.749 82.041)"><path class="a" d="M76.471,280H66.925a2.929,2.929,0,1,0,0,5.859h9.545a2.929,2.929,0,1,0,0-5.859Z" transform="translate(-63.996 -279.998)"/></g><g transform="translate(42.868 98.446)"><path class="a" d="M178.451,335.994h-29.2a2.929,2.929,0,1,0,0,5.859h29.2a2.929,2.929,0,0,0,0-5.859Z" transform="translate(-146.324 -335.994)"/></g><g transform="translate(18.749 98.446)"><path class="a" d="M76.471,335.994H66.925a2.929,2.929,0,1,0,0,5.859h9.545a2.929,2.929,0,1,0,0-5.859Z" transform="translate(-63.996 -335.994)"/></g><g transform="translate(42.867 114.852)"><path class="a" d="M151.321,392.849a2.927,2.927,0,1,0,.859,2.071A2.946,2.946,0,0,0,151.321,392.849Z" transform="translate(-146.32 -391.991)"/></g><g transform="translate(18.749 114.852)"><path class="a" d="M76.471,391.991H66.925a2.929,2.929,0,0,0,0,5.859h9.545a2.929,2.929,0,0,0,0-5.859Z" transform="translate(-63.996 -391.991)"/></g><g transform="translate(70.547 90.479)"><path class="a" d="M302.091,332a18.2,18.2,0,0,0-2.533.18,18.161,18.161,0,0,0-30.236-18.06l-23.2,23.2a18.163,18.163,0,0,0,25.686,25.686l12.138-12.138A18.161,18.161,0,1,0,302.091,332Zm-34.427,26.864a12.3,12.3,0,1,1-17.4-17.4l9.529-9.529,17.4,17.4Zm13.671-13.672-17.4-17.4,9.529-9.528a12.3,12.3,0,1,1,17.4,17.4Zm17.826,16.92a12.3,12.3,0,0,1,0-23.9Zm5.859,0v-23.9a12.3,12.3,0,0,1,0,23.9Z" transform="translate(-240.802 -308.801)"/></g></g></svg>