<svg xmlns="http://www.w3.org/2000/svg" width="12.024" height="19.998" viewBox="0 0 12.024 19.998"><defs><style>.a{fill:#fff;}</style></defs><path class="a" d="M17.83,12.74c-.28-.57-1.07-1.05-2.12-.24A6.842,6.842,0,0,1,12,13.64,6.842,6.842,0,0,1,8.29,12.5c-1.05-.81-1.84-.33-2.12.24-.5,1,.06,1.49,1.33,2.3a8.539,8.539,0,0,0,3.54,1.06l-.8.8C9.1,18.03,8,19.12,7.25,19.88a1.141,1.141,0,0,0,0,1.62l.14.16a1.165,1.165,0,0,0,1.64,0L12,18.68c1.15,1.13,2.24,2.22,3,2.98a1.165,1.165,0,0,0,1.64,0l.13-.16a1.123,1.123,0,0,0,0-1.62L13.79,16.9,13,16.09a8.354,8.354,0,0,0,3.5-1.05c1.27-.81,1.83-1.3,1.33-2.3M12,4.57A2.49,2.49,0,1,1,9.5,7.06,2.5,2.5,0,0,1,12,4.57m0,7.55A5.06,5.06,0,1,0,6.94,7.06,5.053,5.053,0,0,0,12,12.12Z" transform="translate(-5.988 -2)"/></svg>