<svg xmlns="http://www.w3.org/2000/svg" width="18.524" height="11" viewBox="0 0 18.524 11"><defs><style>.a{fill:#fff;}</style></defs><path class="a" d="M20.8,7.74c.13-.42,0-.74-.62-.74H18.16a.868.868,0,0,0-.88.57,17.086,17.086,0,0,1-2.49,4.15c-.48.47-.69.62-.95.62-.13,0-.34-.15-.34-.58V7.74c0-.51-.12-.74-.55-.74H9.76a.486.486,0,0,0-.51.47c0,.48.75.6.8,1.97v2.98c0,.66-.12.78-.37.78-.68,0-2.36-2.53-3.35-5.41C6.13,7.23,5.94,7,5.42,7H3.39c-.57,0-.69.27-.69.57,0,.54.69,3.2,3.2,6.72A7.871,7.871,0,0,0,12.08,18c1.29,0,1.45-.29,1.45-.79V15.39c0-.57.12-.69.53-.69.3,0,.81.15,2.01,1.3,1.38,1.38,1.6,2,2.38,2h2.02c.58,0,.87-.29.71-.86a8.664,8.664,0,0,0-1.71-2.38c-.47-.55-1.18-1.15-1.4-1.46-.3-.38-.21-.55,0-.9C18.07,12.4,20.54,8.93,20.8,7.74Z" transform="translate(-2.7 -7)"/></svg>